<svg xmlns="http://www.w3.org/2000/svg" xmlns:xlink="http://www.w3.org/1999/xlink" width="184.592" height="47" viewBox="0 0 184.592 47"><defs><clipPath id="a"><rect width="184.592" height="47" transform="translate(0 0.001)" fill="#fff"/></clipPath></defs><g transform="translate(0 0)" clip-path="url(#a)"><path d="M175.9,12.023,160.152,47h-7.2l5.66-12.563-10.1-22.414h7.2l6.5,14.432,6.5-14.432Zm-31.84,13.117a7.653,7.653,0,1,0-7.653,7.653h.03a7.658,7.658,0,0,0,7.622-7.653m6.554,0a14.2,14.2,0,1,1,0-.013v.013M28.416,38.255h6.561V12.024H28.416Zm85.351-13.115a7.654,7.654,0,1,0-7.654,7.653,7.654,7.654,0,0,0,7.654-7.653m6.554,0a14.2,14.2,0,0,1-14.163,14.24h-.045a10.637,10.637,0,0,1-7.622-2.7v1.607H91.906V0H98.46V13.167a14.208,14.208,0,0,1,21.862,11.972M61.92,15.5a14.208,14.208,0,1,0-.807,20.078q.42-.389.807-.807l-4.814-4.445a7.654,7.654,0,1,1-.437-10.816q.228.21.437.437Zm20.591,6.631a7.622,7.622,0,0,0-14.075,0H82.511m7.171,3a13.836,13.836,0,0,1-.33,3H68.437a7.621,7.621,0,0,0,12.658,2.186l4.821,4.445a14.205,14.205,0,1,1,3.767-9.635ZM25.139,38.255V23.5A12.57,12.57,0,0,0,0,23.5V38.255H6.549V23.5a6.014,6.014,0,1,1,12.023-.391c0,.13,0,.26,0,.391V38.255Zm155.82-23.1c.552,0,.933-.254.933-.7,0-.412-.337-.679-.9-.679h-1.15v1.4Zm-1.7-1.906h1.754a1.63,1.63,0,0,1,1.162.412,1.028,1.028,0,0,1,.318.762,1.169,1.169,0,0,1-1.016,1.156l1.213,1.569h-.718l-1.131-1.473h-1v1.473h-.579Zm1.487,5.57a3.468,3.468,0,0,0,3.487-3.448V15.32a3.481,3.481,0,1,0-6.955-.3,2.785,2.785,0,0,0,0,.3,3.436,3.436,0,0,0,3.4,3.474h.07m0,.33a3.827,3.827,0,1,1,.032,0" transform="translate(0 0)" fill="#fff"/></g></svg>